<mxfile host="app.diagrams.net" modified="2024-01-17T09:08:22.937Z" agent="Mozilla/5.0 (Windows NT 10.0; Win64; x64) AppleWebKit/537.36 (KHTML, like Gecko) Chrome/120.0.0.0 Safari/537.36" version="22.1.20" etag="g9eH-mVdIFQJnloWIROB" type="device">
  <diagram id="C5RBs43oDa-KdzZeNtuy" name="Page-1">
    <mxGraphModel dx="836" dy="491" grid="1" gridSize="10" guides="1" tooltips="1" connect="1" arrows="1" fold="1" page="1" pageScale="1" pageWidth="827" pageHeight="1169" math="0" shadow="0">
      <root>
        <mxCell id="WIyWlLk6GJQsqaUBKTNV-0" />
        <mxCell id="WIyWlLk6GJQsqaUBKTNV-1" parent="WIyWlLk6GJQsqaUBKTNV-0" />
        <mxCell id="ZkPJ80Nt-XzLLg1yRuMD-10" style="rounded=0;orthogonalLoop=1;jettySize=auto;html=1;exitX=0;exitY=0;exitDx=0;exitDy=0;endArrow=none;endFill=0;" edge="1" parent="WIyWlLk6GJQsqaUBKTNV-1" source="ZkPJ80Nt-XzLLg1yRuMD-0">
          <mxGeometry relative="1" as="geometry">
            <mxPoint x="120" y="150" as="targetPoint" />
          </mxGeometry>
        </mxCell>
        <mxCell id="ZkPJ80Nt-XzLLg1yRuMD-12" style="edgeStyle=orthogonalEdgeStyle;rounded=0;orthogonalLoop=1;jettySize=auto;html=1;exitX=1;exitY=0.5;exitDx=0;exitDy=0;entryX=0;entryY=0.5;entryDx=0;entryDy=0;" edge="1" parent="WIyWlLk6GJQsqaUBKTNV-1" source="ZkPJ80Nt-XzLLg1yRuMD-0" target="ZkPJ80Nt-XzLLg1yRuMD-11">
          <mxGeometry relative="1" as="geometry" />
        </mxCell>
        <mxCell id="ZkPJ80Nt-XzLLg1yRuMD-0" value="&lt;b style=&quot;font-size: 14px;&quot;&gt;assdraft1.cpp&lt;br&gt;main()&lt;/b&gt;" style="ellipse;whiteSpace=wrap;html=1;" vertex="1" parent="WIyWlLk6GJQsqaUBKTNV-1">
          <mxGeometry x="140" y="170" width="150" height="90" as="geometry" />
        </mxCell>
        <mxCell id="ZkPJ80Nt-XzLLg1yRuMD-2" style="rounded=0;orthogonalLoop=1;jettySize=auto;html=1;exitX=0.5;exitY=0;exitDx=0;exitDy=0;entryX=0;entryY=1;entryDx=0;entryDy=0;endArrow=none;endFill=0;" edge="1" parent="WIyWlLk6GJQsqaUBKTNV-1" source="ZkPJ80Nt-XzLLg1yRuMD-1" target="ZkPJ80Nt-XzLLg1yRuMD-0">
          <mxGeometry relative="1" as="geometry" />
        </mxCell>
        <mxCell id="ZkPJ80Nt-XzLLg1yRuMD-1" value="&lt;b&gt;constructors.h&lt;/b&gt;&lt;br&gt;declares structs" style="rounded=1;whiteSpace=wrap;html=1;" vertex="1" parent="WIyWlLk6GJQsqaUBKTNV-1">
          <mxGeometry x="30" y="290" width="120" height="60" as="geometry" />
        </mxCell>
        <mxCell id="ZkPJ80Nt-XzLLg1yRuMD-8" style="rounded=0;orthogonalLoop=1;jettySize=auto;html=1;exitX=0.75;exitY=1;exitDx=0;exitDy=0;endArrow=none;endFill=0;" edge="1" parent="WIyWlLk6GJQsqaUBKTNV-1" source="ZkPJ80Nt-XzLLg1yRuMD-3">
          <mxGeometry relative="1" as="geometry">
            <mxPoint x="120" y="150" as="targetPoint" />
          </mxGeometry>
        </mxCell>
        <mxCell id="ZkPJ80Nt-XzLLg1yRuMD-3" value="&lt;b&gt;converters.h&lt;/b&gt;&lt;br&gt;fn prototype" style="rounded=1;whiteSpace=wrap;html=1;" vertex="1" parent="WIyWlLk6GJQsqaUBKTNV-1">
          <mxGeometry x="30" y="40" width="120" height="60" as="geometry" />
        </mxCell>
        <mxCell id="ZkPJ80Nt-XzLLg1yRuMD-9" style="rounded=0;orthogonalLoop=1;jettySize=auto;html=1;exitX=0.25;exitY=1;exitDx=0;exitDy=0;endArrow=none;endFill=0;" edge="1" parent="WIyWlLk6GJQsqaUBKTNV-1" source="ZkPJ80Nt-XzLLg1yRuMD-4">
          <mxGeometry relative="1" as="geometry">
            <mxPoint x="120" y="150" as="targetPoint" />
          </mxGeometry>
        </mxCell>
        <mxCell id="ZkPJ80Nt-XzLLg1yRuMD-4" value="&lt;b&gt;converters.cpp&lt;/b&gt;&lt;br&gt;fn logic" style="rounded=1;whiteSpace=wrap;html=1;" vertex="1" parent="WIyWlLk6GJQsqaUBKTNV-1">
          <mxGeometry x="170" y="40" width="120" height="60" as="geometry" />
        </mxCell>
        <mxCell id="ZkPJ80Nt-XzLLg1yRuMD-11" value="&lt;font style=&quot;font-size: 14px;&quot;&gt;&lt;b&gt;ass.app&lt;/b&gt;&lt;/font&gt;" style="ellipse;whiteSpace=wrap;html=1;" vertex="1" parent="WIyWlLk6GJQsqaUBKTNV-1">
          <mxGeometry x="414" y="172.5" width="146" height="85" as="geometry" />
        </mxCell>
        <mxCell id="ZkPJ80Nt-XzLLg1yRuMD-14" value="" style="endArrow=none;dashed=1;html=1;rounded=0;" edge="1" parent="WIyWlLk6GJQsqaUBKTNV-1">
          <mxGeometry width="50" height="50" relative="1" as="geometry">
            <mxPoint x="360" y="380" as="sourcePoint" />
            <mxPoint x="360" y="20" as="targetPoint" />
          </mxGeometry>
        </mxCell>
        <mxCell id="ZkPJ80Nt-XzLLg1yRuMD-15" value="&lt;font style=&quot;font-size: 14px;&quot;&gt;makefile&lt;/font&gt;" style="text;html=1;align=center;verticalAlign=middle;resizable=0;points=[];autosize=1;strokeColor=none;fillColor=none;" vertex="1" parent="WIyWlLk6GJQsqaUBKTNV-1">
          <mxGeometry x="360" y="38" width="80" height="30" as="geometry" />
        </mxCell>
      </root>
    </mxGraphModel>
  </diagram>
</mxfile>
